<?xml version="1.0" standalone="no"?>
<!DOCTYPE svg PUBLIC "-//W3C//DTD SVG 1.1//EN" "http://www.w3.org/Graphics/SVG/1.1/DTD/svg11.dtd">
<svg t="1678440114406" class="svg-image" viewBox="0 0 1024 1024" version="1.1" xmlns="http://www.w3.org/2000/svg" xmlns:xlink="http://www.w3.org/1999/xlink">
<path d="M0 512c0-64.76799999 12.416-127.68 37.12-186.81599999 23.744-57.216 57.792-108.48 101.248-152.51200001 43.328-44.03199999 93.888-78.656 150.144-102.848C346.752 44.736 408.64 32 472.384 32c76.288 0 152.128 19.008 219.264 54.912C756.416 121.664 813.376 172.16 856.256 232.896 868.16 249.792 864.32 273.28 847.744 285.312c-16.64 12.032-39.616 8.192-51.52-8.704C759.936 225.28 711.936 182.656 657.216 153.408 599.808 122.688 537.6 107.072 472.384 107.072c-106.43200001 0-206.528 42.176-281.792 118.656-75.264 76.416-116.736 178.112-116.736 286.208s41.472 209.792 116.736 286.336c75.328 76.48 175.35999999 118.592 281.792 118.592 65.216 0 127.488-15.488 184.832-46.336 54.656-29.248 102.72-72 139.008-123.328 11.83999999-16.896 34.88-20.8 51.456-8.704 16.64 12.16 20.48 35.584 8.57599999 52.352-42.88 60.8-99.84 111.36-164.67199999 146.112C624.384 972.992 548.60800001 992 472.32 992c-63.744 0-125.696-12.672-183.936-37.76-56.256-24.192-106.752-58.816-150.14400001-102.848-43.392-44.096-77.37600001-95.36-101.24799999-152.512C12.416 639.616 0 576.768 0 512L0 512 0 512zM512.64 523.328c0-20.8 16.51200001-37.568 36.864-37.568L987.072 485.76C1007.424 485.696 1024 502.528 1024 523.328 1024 544 1007.424 560.832 987.072 560.832l-437.568 0C529.152 560.832 512.64 544 512.64 523.328L512.64 523.328 512.64 523.328zM512.64 523.328"></path>
</svg>