<?xml version="1.0" standalone="no"?><!DOCTYPE svg PUBLIC "-//W3C//DTD SVG 1.1//EN" "http://www.w3.org/Graphics/SVG/1.1/DTD/svg11.dtd"><svg t="1676360485434" class="icon" viewBox="0 0 1024 1024" version="1.1" xmlns="http://www.w3.org/2000/svg" p-id="7205" xmlns:xlink="http://www.w3.org/1999/xlink" width="200" height="200"><path d="M128 224a32 32 0 0 1 32-32h704a32 32 0 1 1 0 64H160c-17.664 0-32-14.208-32-32z m0 288c0-17.664 14.368-32 32.224-32h415.552C593.568 480 608 494.208 608 512c0 17.664-14.368 32-32.224 32H160.224A32.032 32.032 0 0 1 128 512z m0 288a32 32 0 0 1 32-32h704a32 32 0 1 1 0 64H160c-17.664 0-32-14.208-32-32z m553.376-425.376a32 32 0 0 1 45.248-45.248l160 160a32 32 0 0 1 0 45.248l-160 160a32 32 0 0 1-45.248-45.248L818.752 512 681.376 374.624z" fill="#ffffff" p-id="7206"></path></svg>