<?xml version="1.0" standalone="no"?>
<!DOCTYPE svg PUBLIC "-//W3C//DTD SVG 1.1//EN" "http://www.w3.org/Graphics/SVG/1.1/DTD/svg11.dtd">
<svg class="svg-image" viewBox="0 0 1024 1024" version="1.1" xmlns="http://www.w3.org/2000/svg" xmlns:xlink="http://www.w3.org/1999/xlink">
<path d="M685.248 640l211.424 211.424-45.248 45.248L640 685.248V800a32 32 0 0 1-64 0v-192a31.904 31.904 0 0 1 32-32h192a32 32 0 0 1 0 64h-114.752z m-346.496 0l-211.424 211.424 45.248 45.248L384 685.248V800a32 32 0 0 0 64 0v-192a31.904 31.904 0 0 0-32-32H224a32 32 0 0 0 0 64h114.752z m0-256L127.328 172.576 172.576 127.36 384 338.752V224a32 32 0 0 1 64 0v192a31.904 31.904 0 0 1-32 32H224a32 32 0 0 1 0-64h114.752z m346.496 0l211.424-211.424-45.248-45.248L640 338.752V224a32 32 0 0 0-64 0v192a31.904 31.904 0 0 0 32 32h192a32 32 0 0 0 0-64h-114.752z" fill="#ffffff" p-id="6858"></path>
</svg>