<?xml version="1.0" standalone="no"?><!DOCTYPE svg PUBLIC "-//W3C//DTD SVG 1.1//EN" "http://www.w3.org/Graphics/SVG/1.1/DTD/svg11.dtd"><svg t="1676360261209" class="icon" viewBox="0 0 1024 1024" version="1.1" xmlns="http://www.w3.org/2000/svg" p-id="5639" xmlns:xlink="http://www.w3.org/1999/xlink" width="200" height="200"><path d="M448 832v-64H127.712C92.512 768 64 739.264 64 704.32V191.68C64 156.544 92.8 128 127.712 128H896.32C931.488 128 960 156.736 960 191.68v512.64c0 35.168-28.8 63.68-63.712 63.68H576v64h95.936a31.968 31.968 0 1 1 0 64h-319.872a31.968 31.968 0 1 1 0-64H448zM128 228.8v438.4c0 20.352 14.336 36.8 32 36.8h704c17.696 0 32-16.48 32-36.8V228.8C896 208.48 881.664 192 864 192H160c-17.696 0-32 16.48-32 36.8z" fill="#ffffff" p-id="5640"></path></svg>