<?xml version="1.0" standalone="no"?><!DOCTYPE svg PUBLIC "-//W3C//DTD SVG 1.1//EN" "http://www.w3.org/Graphics/SVG/1.1/DTD/svg11.dtd"><svg viewBox="0 0 1024 1024" version="1.1" xmlns="http://www.w3.org/2000/svg"><path d="M512 256a256 256 0 1 1 0 512 256 256 0 0 1 0-512z m4.576 68.576a192 192 0 1 0 0 384 192 192 0 0 0 0-384zM512 64a32 32 0 0 1 32 32v96a32 32 0 0 1-64 0V96a32 32 0 0 1 32-32z m316.8 131.2a32 32 0 0 1 0 45.28l-67.904 67.872a32 32 0 1 1-45.248-45.248L783.52 195.2a32 32 0 0 1 45.248 0zM960 512a32 32 0 0 1-32 32h-96a32 32 0 0 1 0-64h96a32 32 0 0 1 32 32zM828.8 828.8a32 32 0 0 1-45.28 0l-67.872-67.904a32 32 0 0 1 45.248-45.248l67.872 67.872a32 32 0 0 1 0 45.248zM512 960a32 32 0 0 1-32-32v-96a32 32 0 0 1 64 0v96a32 32 0 0 1-32 32zM195.2 828.8a32 32 0 0 1 0-45.28l67.904-67.872a32 32 0 1 1 45.248 45.248L240.48 828.8a32 32 0 0 1-45.248 0zM64 512a32 32 0 0 1 32-32h96a32 32 0 0 1 0 64H96a32 32 0 0 1-32-32z m131.2-316.8a32 32 0 0 1 45.28 0l67.872 67.904a32 32 0 1 1-45.248 45.248L195.2 240.48a32 32 0 0 1 0-45.248z"></path></svg>